:SAMPLES-PER-SECOND 30
:FRAME-RANGE 1-3549
:FULLY-SPECIFIED
:DEGREES
1442
root  -25.825 39.4823 -59.2949 -175.525 70.9485 -175.819
RightUpLeg  -6.64527 -19.6219 -1.65197
RightLeg  19.4275 -12.5099 -4.09026
RightFoot  -10.3753 -0.124221 6.36212
RightToes  -1.11029e-010 1.2921e-014 -6.02303e-014
Spine  7.21063 -0.541972 1.33692
Spine1  -1.53008 -0.352044 -0.350634
HEad  -2.88103 -0.138283 -1.86604
LeftShoulder1  1.90959 -3.22575 -22.0457
LeftArm  -14.3837 -51.6634 -31.3597
LeftForeArm  26.9805 -35.31 -6.3474
LeftHand  -0.397169 1.88679 13.0414
RightShoulder  12.0741 23.7905 38.0023
RightArm  -29.4125 21.7756 5.32608
RightForeArm  60.5038 74.7649 35.3261
RightHand  -0.822381 1.00424 -15.0133
LeftUpLeg  -11.2334 13.3526 2.75818
LeftLeg  21.4866 -0.0107887 0.324919
LeftFoot  -8.87466 0.111832 -2.72106
LeftToes  -1.9349e-011 -1.19469e-011 -2.02219e-012
1443
root  -25.6921 39.4088 -59.3927 -175.718 70.1996 -176.089
RightUpLeg  -6.82556 -20.6133 -1.72152
RightLeg  20.3275 -12.2792 -4.64476
RightFoot  -11.0587 -0.091494 6.61362
RightToes  -1.11029e-010 1.2921e-014 -6.02303e-014
Spine  7.39959 -0.470398 0.752525
Spine1  -1.73293 -0.321894 -0.249223
HEad  -4.02568 -1.41308 -1.19363
LeftShoulder1  1.86632 -3.32769 -20.9217
LeftArm  -16.0156 -53.9034 -31.0352
LeftForeArm  27.7302 -35.9912 -6.4839
LeftHand  -0.384916 2.05759 13.264
RightShoulder  11.9814 24.3987 36.7292
RightArm  -33.1887 22.7263 4.31453
RightForeArm  61.7515 75.0732 36.1148
RightHand  -0.833852 0.835202 -15.6166
LeftUpLeg  -11.6499 13.7365 2.66057
LeftLeg  22.4905 -0.940519 -0.0972572
LeftFoot  -9.32101 0.0983917 -2.40822
LeftToes  -1.9349e-011 -1.19469e-011 -2.02219e-012
1444
root  -25.5717 39.4177 -59.5018 -175.58 69.7141 -176.255
RightUpLeg  -6.90903 -21.0479 -1.82713
RightLeg  20.4216 -12.0672 -4.7567
RightFoot  -11.056 -0.0927632 7.05962
RightToes  -1.11029e-010 1.2921e-014 -6.02303e-014
Spine  7.3092 -0.397176 0.339934
Spine1  -1.86342 -0.26361 -0.329879
HEad  -5.06442 -2.82784 -0.795775
LeftShoulder1  1.8115 -3.35217 -19.9623
LeftArm  -17.8052 -55.9691 -30.3154
LeftForeArm  28.5396 -36.9651 -6.69931
LeftHand  -0.375224 2.20947 13.5273
RightShoulder  11.9269 25.1011 35.492
RightArm  -37.2523 23.4853 3.06474
RightForeArm  62.8522 75.3966 37.0574
RightHand  -0.844441 0.585728 -16.4473
LeftUpLeg  -11.804 14.3617 2.50063
LeftLeg  22.4885 -1.79715 -0.486718
LeftFoot  -9.29165 0.0915987 -2.00319
LeftToes  -1.9349e-011 -1.19469e-011 -2.02219e-012
1445
root  -25.464 39.5337 -59.6225 -175.008 69.1691 -176.017
RightUpLeg  -6.46625 -21.1246 -1.99454
RightLeg  19.4032 -12.7016 -4.36558
RightFoot  -10.1291 -0.14691 7.36387
RightToes  -1.11029e-010 1.2921e-014 -6.02303e-014
Spine  7.33509 -0.386641 0.0947405
Spine1  -2.20994 -0.281293 -0.309613
HEad  -6.00842 -4.54038 -0.539649
LeftShoulder1  1.77635 -3.42192 -19.1319
LeftArm  -18.7747 -57.7238 -29.876
LeftForeArm  29.1834 -38.1578 -6.99253
LeftHand  -0.356994 2.46226 13.8244
RightShoulder  11.7606 25.5112 34.3346
RightArm  -40.8169 23.9767 1.98125
RightForeArm  64.3679 75.7613 38.1241
RightHand  -0.848661 0.495459 -16.7726
LeftUpLeg  -11.4464 15.2852 2.43391
LeftLeg  21.2595 -2.88746 -0.910035
LeftFoot  -8.63276 0.084596 -1.38567
LeftToes  -1.9349e-011 -1.19469e-011 -2.02219e-012
1446
root  -25.342 39.7675 -59.7518 -174.644 68.5085 -176.184
RightUpLeg  -5.40355 -20.3276 -2.68111
RightLeg  17.1158 -14.064 -2.94619
RightFoot  -8.53747 -0.249162 7.79404
RightToes  -1.11029e-010 1.2921e-014 -6.02303e-014
Spine  7.00542 -0.424593 -0.554896
Spine1  -2.41832 -0.430642 0.0756534
HEad  -6.85809 -5.97029 -0.34346
LeftShoulder1  1.75086 -3.48794 -18.4785
LeftArm  -18.3343 -59.1827 -30.2743
LeftForeArm  29.5096 -39.4832 -7.35484
LeftHand  -0.339395 2.64165 14.0881
RightShoulder  11.5666 25.6495 33.4799
RightArm  -43.4104 24.1666 1.10822
RightForeArm  65.2 75.9762 38.8147
RightHand  -0.865865 0.482378 -17.1437
LeftUpLeg  -10.4726 15.6719 2.16487
LeftLeg  18.4087 -3.75537 -1.0684
LeftFoot  -7.19399 0.080477 -1.02868
LeftToes  -1.9349e-011 -1.19469e-011 -2.02219e-012
1447
root  -25.2076 40.0614 -59.8756 -173.517 68.1035 -175.702
RightUpLeg  -4.14904 -16.9139 -3.17503
RightLeg  14.016 -17.7227 -1.13021
RightFoot  -6.17123 -0.414886 8.24342
RightToes  -1.11029e-010 1.2921e-014 -6.02303e-014
Spine  6.25324 -0.441476 -1.11268
Spine1  -2.37974 -0.581132 0.675423
HEad  -7.49408 -6.84841 -0.205121
LeftShoulder1  1.73634 -3.60107 -17.8272
LeftArm  -17.2313 -60.2871 -31.2049
LeftForeArm  29.8768 -40.2806 -7.56911
LeftHand  -0.337602 2.65867 14.0975
RightShoulder  11.4299 25.7978 32.8104
RightArm  -44.7982 24.3347 0.451807
RightForeArm  63.7541 75.5465 37.4057
RightHand  -0.884887 0.452507 -17.6001
LeftUpLeg  -8.97704 15.0746 2.53931
LeftLeg  14.4301 -3.4141 -1.53235
LeftFoot  -5.33546 0.0786144 -0.88685
LeftToes  -1.9349e-011 -1.19469e-011 -2.02219e-012
1448
root  -25.088 40.3572 -59.9757 -172.12 68.0601 -174.917
RightUpLeg  -3.03168 -13.475 -3.43159
RightLeg  10.6726 -20.8151 0.817048
RightFoot  -3.46827 -0.630933 8.80749
RightToes  -1.11029e-010 1.2921e-014 -6.02303e-014
Spine  5.62256 -0.46 -1.55871
Spine1  -2.36501 -0.694565 1.09119
HEad  -8.059 -7.1103 -0.0234903
LeftShoulder1  1.72766 -3.79736 -16.9871
LeftArm  -16.591 -61.4276 -31.4857
LeftForeArm  29.433 -40.3097 -7.606
LeftHand  -0.32677 2.73619 14.0232
RightShoulder  11.225 25.9678 31.8834
RightArm  -45.5206 25.228 0.189306
RightForeArm  59.3444 73.8732 32.7194
RightHand  -0.905846 0.537235 -17.7609
LeftUpLeg  -7.34197 11.8724 3.46191
LeftLeg  10.244 -0.227033 -2.27766
LeftFoot  -3.08527 0.0945946 -1.0534
LeftToes  -1.9349e-011 -1.19469e-011 -2.02219e-012
1449
root  -25.0169 40.6045 -60.0378 -170.68 68.2231 -174.066
RightUpLeg  -2.42463 -11.1367 -3.51431
RightLeg  7.93431 -22.3672 2.41148
RightFoot  -0.910042 -0.877794 9.52695
RightToes  -1.11029e-010 1.2921e-014 -6.02303e-014
Spine  5.23559 -0.550608 -2.02518
Spine1  -2.45249 -0.877958 1.52781
HEad  -8.66679 -6.87918 0.295031
LeftShoulder1  1.68333 -3.90784 -15.9528
LeftArm  -17.0978 -63.1099 -30.7706
LeftForeArm  28.5556 -39.0655 -7.29208
LeftHand  -0.32656 2.69358 13.7945
RightShoulder  11.1765 26.9339 30.4737
RightArm  -46.7173 26.3199 -0.136061
RightForeArm  54.0636 70.5517 26.0317
RightHand  -0.975057 0.788822 -18.3401
LeftUpLeg  -6.39026 10.3011 4.25237
LeftLeg  7.1877 1.58267 -3.13844
LeftFoot  -0.91302 0.149747 -1.58103
LeftToes  -1.9349e-011 -1.19469e-011 -2.02219e-012
